# ProBuilder 5.0.7
# https://unity3d.com/unity/features/worldbuilding/probuilder
# 5/20/2023 12:40:09 PM

mtllib ./OverWorldPlatform.mtl
o OverWorldPlatform

g OverWorldPlatform
v -0.5 -0.5 60.5
v -0.5 0.5 60.5
v 0.5 0.5 60.5
v 0.5 -0.5 60.5
v -0.5 0.5 -0.5
v 0.5 0.5 -0.5
v 0.5 -0.5 -0.5
v -0.5 -0.5 -0.5
v -0.5 -0.5 0.5
v 0.5 -0.5 0.5
v 60.5 -0.5 0.5
v 60.5 0.5 0.5
v 60.5 0.5 -0.5
v 60.5 -0.5 -0.5
v -60.5 -0.5 -0.5
v -60.5 0.5 -0.5
v -60.5 0.5 0.5
v -60.5 -0.5 0.5
v -60.5 -0.5 60.5
v -60.5 0.5 60.5
v 60.5 0.5 60.5
v 60.5 -0.5 60.5
v 0.5 0.5 0.5
v -0.5 0.5 0.5

vt 0 0
vt 0 1
vt 1 1
vt 1 0
vt 0.5 -0.5
vt -0.5 -0.5
vt -0.5 0.5
vt 60.5 -0.5
vt 60.5 0.5
vt -60.5 0.5
vt -60.5 -0.5
vt 0.5 0.5
vt 0.5 60.5
vt -0.5 60.5
vt -60.5 60.5
vt 60.5 60.5

vn 0 0 1
vn 0 1 0
vn 0 0 -1
vn 0 -1 0
vn 1 0 0
vn -1 0 0

usemtl Lit
f 13/3/5 12/2/5 11/1/5
f 14/4/5 13/3/5 11/1/5
f 21/10/5 11/1/5 12/2/5
f 21/10/5 22/11/5 11/1/5
f 17/3/6 16/2/6 15/1/6
f 18/4/6 17/3/6 15/1/6
f 19/8/6 17/3/6 18/4/6
f 19/8/6 20/9/6 17/3/6
f 15/8/3 5/12/3 8/5/3
f 15/8/3 16/9/3 5/12/3
f 7/6/3 8/5/3 5/12/3
f 6/7/3 7/6/3 5/12/3
f 13/10/3 7/6/3 6/7/3
f 13/10/3 14/11/3 7/6/3
f 17/9/2 2/13/2 24/12/2
f 17/9/2 20/16/2 2/13/2
f 21/15/2 23/7/2 3/14/2
f 21/15/2 12/10/2 23/7/2
f 2/13/2 23/7/2 24/12/2
f 2/13/2 3/14/2 23/7/2
f 6/6/2 5/5/2 24/12/2
f 23/7/2 6/6/2 24/12/2
f 12/10/2 6/6/2 23/7/2
f 12/10/2 13/11/2 6/6/2
f 16/8/2 24/12/2 5/5/2
f 16/8/2 17/9/2 24/12/2
f 3/3/1 2/2/1 1/1/1
f 1/1/1 4/4/1 3/3/1
f 10/3/4 9/2/4 8/1/4
f 8/1/4 7/4/4 10/3/4
f 1/14/4 9/7/4 10/12/4
f 10/12/4 4/13/4 1/14/4
f 11/9/4 10/12/4 7/5/4
f 7/5/4 14/8/4 11/9/4
f 22/16/4 4/13/4 10/12/4
f 10/12/4 11/9/4 22/16/4
f 21/9/1 3/12/1 4/5/1
f 4/5/1 22/8/1 21/9/1
f 15/11/4 8/6/4 9/7/4
f 9/7/4 18/10/4 15/11/4
f 18/10/4 9/7/4 1/14/4
f 1/14/4 19/15/4 18/10/4
f 19/11/1 1/6/1 2/7/1
f 2/7/1 20/10/1 19/11/1

